<svg width="324" height="324" viewBox="0 0 324 324" fill="none" xmlns="http://www.w3.org/2000/svg">
<path d="M35.1 176.62L81.702 197.019L216 123.754L135 218.254L251.1 271.12C253.086 271.99 255.251 272.369 257.414 272.225C259.577 272.08 261.673 271.417 263.526 270.292C265.378 269.166 266.933 267.611 268.057 265.758C269.182 263.905 269.843 261.808 269.986 259.645L283.486 57.1455C283.637 54.8017 283.174 52.4591 282.145 50.3483C281.115 48.2374 279.553 46.4311 277.613 45.107C275.673 43.7829 273.422 42.9867 271.081 42.7967C268.74 42.6067 266.39 43.0295 264.262 44.0235L34.7625 152.023C32.4214 153.134 30.4487 154.894 29.0788 157.093C27.7089 159.293 26.9995 161.839 27.0351 164.43C27.0706 167.021 27.8496 169.547 29.2793 171.708C30.709 173.87 32.7293 175.574 35.1 176.62ZM108 299.254L172.476 267.988L108 237.91V299.254Z" fill="#4CAF50"/>
</svg>
